# AST/ASF file generated using VICON BodyLanguage
# -----------------------------------------------
:version 1.10
:name VICON
:units
  mass 1.0
  length 0.45
  angle deg
:documentation
   .ast/.asf automatically generated from VICON data using
   VICON BodyBuilder and BodyLanguage model FoxedUp or BRILLIANT.MOD
:root
   order TX TY TZ RX RY RZ
   axis XYZ
   position 0 0 0  
   orientation 0 0 0 
:bonedata
  begin
     id 1 
     name lhipjoint
     direction 0.558404 -0.748506 0.357664 
     length 2.4234 
     axis 0 0 0  XYZ
  end
  begin
     id 2 
     name lfemur
     direction 0.34202 -0.939693 0  
     length 7.14567  
     axis 0 0 20  XYZ
    dof rx ry rz
    limits (-160.0 20.0)
           (-70.0 70.0)
           (-60.0 70.0)
  end
  begin
     id 3 
     name ltibia
     direction 0.34202 -0.939693 0   
     length 8.13956   
     axis 0 0 20   XYZ
    dof rx
    limits (-10.0 170.0)
  end
  begin
     id 4 
     name lfoot
     direction 0.0791314 -0.217412 0.972867   
     length 2.00134   
     axis -90 7.62852e-016 20   XYZ
    dof rx rz
    limits (-45.0 90.0)
           (-70.0 20.0)
  end
  begin
     id 5 
     name ltoes
     direction 1.53547e-011 -4.21922e-011 1   
     length 1.00735   
     axis -90 7.62852e-016 20   XYZ
    dof rx
    limits (-90.0 20.0)
  end
  begin
     id 6 
     name rhipjoint
     direction -0.496392 -0.78327 0.374276   
     length 2.31584  
     axis 0 0 0  XYZ 
  end
  begin
     id 7 
     name rfemur
     direction -0.34202 -0.939693 0   
     length 7.47417   
     axis 0 0 -20   XYZ
    dof rx ry rz
    limits (-160.0 20.0)
           (-70.0 70.0)
           (-70.0 60.0)
  end
  begin
     id 8 
     name rtibia
     direction -0.34202 -0.939693 0   
     length 7.69071   
     axis 0 0 -20   XYZ
    dof rx
    limits (-10.0 170.0)
 end
 begin
     id 9 
     name rfoot
     direction -0.103069 -0.28318 0.953512   
     length 2.16135  
     axis -90 -7.62852e-016 -20   XYZ
    dof rx rz
    limits (-45.0 90.0)
           (-20.0 70.0)
  end
  begin
     id 10 
     name rtoes
     direction -1.53581e-011 -4.21904e-011 1   
     length 1.07867   
     axis -90 -7.62852e-016 -20   XYZ
    dof rx
    limits (-90.0 20.0)
  end
  begin
     id 11 
     name lowerback
     direction -0.0258961 0.994776 -0.0987407   
     length 2.19412   
     axis 0 0 0   XYZ
    dof rx ry rz
    limits (-20.0 45.0)
           (-30.0 30.0)
           (-30.0 30.0)
  end
  begin
     id 12 
     name upperback
     direction 0.0402454 0.999185 0.00320666   
     length 2.18445   
     axis 0 0 0   XYZ
    dof rx ry rz
    limits (-20.0 45.0)
           (-30.0 30.0)
           (-30.0 30.0)
  end
  begin
     id 13 
     name thorax
     direction 0.0519376 0.997415 0.0496558   
     length 2.21487   
     axis 0 0 0   XYZ
    dof rx ry rz
    limits (-20.0 45.0)
           (-30.0 30.0)
           (-30.0 30.0)
  end
  begin
     id 14 
     name lowerneck
     direction -0.0921276 0.983211 0.157506   
     length 1.61201   
     axis 0 0 0   XYZ
    dof rx ry rz
    limits (-20.0 45.0)
           (-30.0 30.0)
           (-30.0 30.0)
  end
  begin
     id 15 
     name upperneck
     direction 0.0820814 0.98162 -0.172292   
     length 1.65275   
     axis 0 0 0   XYZ
    dof rx ry rz
    limits (-20.0 45.0)
           (-30.0 30.0)
           (-30.0 30.0)
  end
  begin
     id 16
     name head
     direction 0.0336554 0.996413 -0.0776455  
     length 1.66415  
     axis 0 0 0   XYZ
    dof rx ry rz
    limits (-20.0 45.0)
           (-30.0 30.0)
           (-30.0 30.0)
  end
  begin
     id 17 
     name lclavicle
     direction 0.94696 0.284418 -0.149576  
     length 3.41447  
     axis 0 0 0   XYZ
    dof ry rz
    limits (-20.0 10.0)
           (0.0 20.0)
  end
  begin
     id 18 
     name lhumerus
     direction 1 -0.000130264 -9.81312e-005   
     length 5.19964   
     axis 180 -30 -90   XYZ
    dof rx ry rz
    limits (-60.0 90.0)
           (-90.0 90.0)
           (-90.0 90.0)
  end
  begin
     id 19
     name lradius
     direction 1 -4.48961e-011 1.43854e-026   
     length 3.32189   
     axis 180 -30 -90   XYZ
    dof rx
    limits (-10.0 170.0)
  end
  begin
     id 20
     name lwrist
     direction 1 -4.48958e-011 3.1502e-026   
     length 1.66095   
     axis -1.97692e-014 90 90   XYZ
    dof ry
    limits (-180.0 0.0)
 end
  begin
     id 21 
     name lhand
     direction 1 -4.48927e-011 6.3004e-026   
     length 0.645616   
     axis -4.02019e-014 90 90   XYZ
    dof rx rz
    limits (-90.0 90.0)
           (-45.0 45.0)
  end
  begin
     id 22 
     name lfingers
     direction 1 -4.4904e-011 1.26008e-025   
     length 0.520512   
     axis -8.04039e-014 90 90   XYZ
    dof rx
    limits (0.0 90.0)
  end
  begin
     id 23
     name lthumb
     direction 0.707107 -6.34947e-011 0.707107   
     length 0.747354   
     axis -90 45 2.85299e-015   XYZ
    dof rx rz
    limits (-45.0 45.0)
           (-45.0 45.0)
  end
  begin
     id 24 
     name rclavicle
     direction -0.909391 0.383475 -0.161107   
     length 3.25176  
     axis 0 0 0   XYZ 
    dof ry rz
    limits (-10.0 20.0)
           (-20.0 0.0)
  end
  begin
     id 25 
     name rhumerus
     direction -1 -4.48965e-011 -1.81384e-027  
     length 5.6595   
     axis 180 30 90   XYZ
    dof rx ry rz
    limits (-90.0 60.0)
           (-90.0 90.0)
           (-90.0 90.0)
  end
  begin
     id 26 
     name rradius
     direction -1 -4.48996e-011 -8.09397e-027   
     length 3.37604   
     axis 180 30 90   XYZ
    dof rx
    limits (-10.0 170.0)
  end
  begin
     id 27 
     name rwrist
     direction -1 -4.48927e-011 -1.56669e-026   
     length 1.68802   
     axis 1.21142e-014 -90 -90   XYZ
    dof ry
    limits (-180.0 0.0)
  end
  begin
     id 28
     name rhand
     direction -1 -4.48912e-011 -3.13339e-026   
     length 0.824702   
     axis 1.99937e-014 -90 -90   XYZ
    dof rx rz
    limits (-90.0 90.0)
           (-45.0 45.0)
  end
  begin
     id 29
     name rfingers
     direction -1 -4.49011e-011 -6.26677e-026   
     length 0.664896   
     axis 3.99874e-014 -90 -90   XYZ
    dof rx
    limits (0.0 90.0)
  end
  begin
     id 30
     name rthumb
     direction -0.707107 -6.34931e-011 0.707107   
     length 0.954662   
     axis -90 -45 -2.85299e-015   XYZ
    dof rx rz
    limits (-45.0 45.0)
           (-45.0 45.0)
  end
:hierarchy
  begin
    root lhipjoint rhipjoint lowerback
    lhipjoint lfemur
    lfemur ltibia
    ltibia lfoot
    lfoot ltoes
    rhipjoint rfemur
    rfemur rtibia
    rtibia rfoot
    rfoot rtoes
    lowerback upperback
    upperback thorax
    thorax lowerneck lclavicle rclavicle
    lowerneck upperneck
    upperneck head
    lclavicle lhumerus
    lhumerus lradius
    lradius lwrist
    lwrist lhand lthumb
    lhand lfingers
    rclavicle rhumerus
    rhumerus rradius
    rradius rwrist
    rwrist rhand rthumb
    rhand rfingers
  end

#!OML:ASF F:\VICON\USERDATA\INSTALL\rory3\rory3.ASF
:FULLY-SPECIFIED
:DEGREES
61
root 7.80495 15.9311 -27.2693 26.1164 -33.8733 -7.78833
lowerback 13.7278 -5.28632 -4.56707
upperback 0.589576 -7.37869 5.82527
thorax -5.66557 -3.47942 10.1645
lowerneck -16.1022 4.08353 -7.29752
upperneck 17.7734 5.4029 9.57652
head 7.62418 3.01214 4.97794
rclavicle -8.38871e-014 2.62396e-014
rhumerus -42.8504 -4.23336 -71.6037
rradius 57.5799
rwrist -14.1368
rhand -14.8339 19.2845
rfingers 7.12502
rthumb 11.3249 -10.3898
lclavicle -8.38871e-014 2.62396e-014
lhumerus -1.76596 17.9187 71.8968
lradius 27.1968
lwrist -5.72287
lhand -4.25043 30.5037
lfingers 7.12502
lthumb 21.5135 59.329
rfemur -71.0105 -3.70433 30.5886
rtibia 72.0104
rfoot -15.4578 3.06745
rtoes 11.8627
lfemur 0.297653 -8.01246 -28.7432
ltibia 37.0262
lfoot 7.12632 -12.4397
ltoes 0.232911
62
root 7.68745 15.875 -26.9495 25.8049 -33.5826 -7.31318
lowerback 13.1664 -5.39659 -4.35108
upperback 0.676387 -7.49228 5.62748
thorax -5.29446 -3.56527 9.7503
lowerneck -16.0098 3.90201 -7.36063
upperneck 17.5733 5.10625 9.91141
head 7.55785 2.90029 5.06185
rclavicle 4.85035e-014 -5.56597e-015
rhumerus -42.9941 -4.44047 -71.6704
rradius 58.2856
rwrist -15.6013
rhand -15.905 18.8033
rfingers 7.12502
rthumb 10.2918 -10.9249
lclavicle 4.85035e-014 -5.56597e-015
lhumerus -1.81667 18.3708 71.3557
lradius 27.198
lwrist -6.65697
lhand -4.14865 29.8275
lfingers 7.12502
lthumb 21.6112 58.6416
rfemur -70.224 -4.18649 29.9137
rtibia 73.0432
rfoot -17.0802 2.71939
rtoes 9.81513
lfemur 0.607984 -8.66989 -29.4225
ltibia 37.4351
lfoot 11.6189 -11.5257
ltoes 5.09355
63
root 7.57964 15.8344 -26.6609 26.1463 -33.1699 -7.73367
lowerback 13.2623 -5.49369 -3.94065
upperback 0.42038 -7.54309 5.9506
thorax -5.62058 -3.57506 9.91907
lowerneck -16.2147 3.87817 -7.4605
upperneck 18.1212 5.0819 9.90977
head 7.77311 2.87877 5.10757
rclavicle -5.56597e-015 9.54166e-015
rhumerus -43.1012 -4.262 -71.1938
rradius 58.5202
rwrist -15.5256
rhand -15.9717 19.3522
rfingers 7.12502
rthumb 10.2275 -10.3791
lclavicle -5.56597e-015 9.54166e-015
lhumerus -2.37253 19.0365 70.7014
lradius 27.1119
lwrist -7.09422
lhand -3.72448 29.785
lfingers 7.12502
lthumb 22.0185 58.5516
rfemur -69.46 -3.93892 29.9375
rtibia 73.7095
rfoot -18.2981 1.75148
rtoes 9.78641
lfemur 0.217623 -8.76144 -28.9787
ltibia 38.3102
lfoot 15.9026 -10.8974
ltoes 7.1059
64
root 7.47312 15.7862 -26.3534 26.2196 -33.003 -8.07974
lowerback 13.3002 -5.48276 -3.51651
upperback 0.327848 -7.45334 6.1586
thorax -5.78392 -3.53013 9.9106
lowerneck -16.565 3.86542 -7.34743
upperneck 18.5976 5.08508 9.66144
head 8.00447 2.86309 5.04025
rclavicle 9.54166e-015 -7.39479e-014
rhumerus -43.0825 -3.96885 -70.6502
rradius 58.7795
rwrist -15.3603
rhand -16.1519 19.2136
rfingers 7.12502
rthumb 10.0536 -10.5263
lclavicle 9.54166e-015 -7.39479e-014
lhumerus -2.6897 19.5655 70.0194
lradius 26.8504
lwrist -7.53253
lhand -3.4191 30.0773
lfingers 7.12502
lthumb 22.3117 58.8092
rfemur -68.386 -3.74045 29.872
rtibia 74.4216
rfoot -19.7063 0.592098
rtoes 12.3549
lfemur -0.0717327 -8.48862 -28.7675
ltibia 39.4986
lfoot 20.0603 -9.83684
ltoes 8.41144
65
root 7.37155 15.7502 -26.0653 26.3481 -32.928 -8.31144
lowerback 13.4601 -5.38189 -3.36484
upperback 0.188333 -7.28509 6.32639
thorax -6.05096 -3.4319 10.0239
lowerneck -16.4845 3.8426 -7.29091
upperneck 18.4105 5.06424 9.56666
head 7.93515 2.84914 4.98551
rclavicle -6.20208e-014 -6.36111e-015
rhumerus -42.9648 -3.66895 -70.2057
rradius 59.0579
rwrist -15.046
rhand -16.1999 18.8202
rfingers 7.12502
rthumb 10.0073 -10.9219
lclavicle -6.20208e-014 -6.36111e-015
lhumerus -2.98868 20.0432 69.2517
lradius 26.6414
lwrist -8.05083
lhand -3.86252 29.7495
lfingers 7.12502
lthumb 21.886 58.5317
rfemur -67.4158 -3.42978 29.82
rtibia 74.9796
rfoot -21.2823 -0.914243
rtoes 13.4998
lfemur -0.921922 -8.77947 -28.8322
ltibia 41.3039
lfoot 24.1616 -8.10996
ltoes 24.5472
66
root 7.27625 15.7024 -25.7749 26.568 -33.2045 -8.77721
lowerback 13.5956 -5.25159 -3.24881
upperback 0.127241 -7.08561 6.47806
thorax -6.22432 -3.32516 10.1232
lowerneck -16.3073 3.847 -7.41092
upperneck 18.207 5.09244 9.60586
head 7.8286 2.85821 5.00534
rclavicle 8.82604e-014 -6.91771e-014
rhumerus -42.5386 -3.2143 -69.9969
rradius 59.1795
rwrist -14.4737
rhand -15.9021 18.8813
rfingers 7.12502
rthumb 10.2946 -10.8467
lclavicle 8.82604e-014 -6.91771e-014
lhumerus -3.37332 20.7453 68.0884
lradius 26.3853
lwrist -8.45652
lhand -4.18272 28.9935
lfingers 7.12502
lthumb 21.5785 57.8113
rfemur -66.3913 -2.96866 29.9149
rtibia 75.5747
rfoot -22.9823 -2.55674
rtoes 11.371
lfemur -2.07944 -7.33317 -28.4061
ltibia 43.5704
lfoot 28.7155 -7.68343
ltoes 29.8066
67
root 7.18331 15.665 -25.4846 26.7601 -33.3978 -9.29898
lowerback 13.7118 -5.17196 -2.96988
upperback 0.170038 -6.93169 6.58839
thorax -6.29125 -3.25482 10.0759
lowerneck -16.3649 3.77969 -7.54996
upperneck 18.1382 5.03761 9.63614
head 7.81648 2.82802 5.03266
rclavicle -1.78906e-015 -7.95139e-016
rhumerus -41.8425 -2.87349 -69.8756
rradius 59.2082
rwrist -13.7763
rhand -15.4696 19.259
rfingers 7.12502
rthumb 10.7118 -10.4479
lclavicle -1.78906e-015 -7.95139e-016
lhumerus -3.5587 21.7697 66.7488
lradius 26.0135
lwrist -8.97044
lhand -3.92629 28.6433
lfingers 7.12502
lthumb 21.8247 57.4326
rfemur -65.1543 -2.51485 29.9964
rtibia 76.0022
rfoot -24.5294 -4.06767
rtoes 9.06658
lfemur -3.41398 -6.48062 -28.0969
ltibia 46.4602
lfoot 31.1491 -5.97239
ltoes 27.2329
68
root 7.09213 15.6366 -25.2004 26.9673 -33.3035 -9.83383
lowerback 13.7836 -5.06653 -2.4203
upperback 0.25354 -6.70177 6.66645
thorax -6.33804 -3.15701 9.81465
lowerneck -16.4667 3.59874 -7.72234
upperneck 17.946 4.81388 9.81882
head 7.78276 2.73332 5.09772
rclavicle -2.82274e-014 -7.95139e-015
rhumerus -41.0681 -2.74455 -69.7176
rradius 59.2501
rwrist -13.3428
rhand -15.237 19.7474
rfingers 7.12502
rthumb 10.9361 -9.94779
lclavicle -2.82274e-014 -7.95139e-015
lhumerus -3.6447 22.4223 65.5697
lradius 25.822
lwrist -9.05003
lhand -4.20967 28.6412
lfingers 7.12502
lthumb 21.5526 57.4619
rfemur -63.8501 -2.14676 30.0174
rtibia 76.3765
rfoot -26.0865 -5.07703
rtoes 8.08128
lfemur -4.9418 -5.70714 -27.573
ltibia 49.6004
lfoot 31.4414 -3.97122
ltoes 29.5387
69
root 7.00043 15.6419 -24.9076 27.2491 -33.0765 -10.4347
lowerback 13.926 -4.92525 -1.86514
upperback 0.244765 -6.41265 6.85946
thorax -6.51729 -3.02115 9.68644
lowerneck -16.6153 3.48108 -7.76176
upperneck 18.0672 4.67146 9.79642
head 7.86315 2.66213 5.09429
rclavicle -1.09133e-013 4.92986e-014
rhumerus -40.2272 -2.47831 -69.4187
rradius 59.1877
rwrist -13.0926
rhand -15.2146 20.2732
rfingers 7.12502
rthumb 10.9578 -9.42087
lclavicle -1.09133e-013 4.92986e-014
lhumerus -4.02584 22.9544 64.4914
lradius 25.786
lwrist -9.1763
lhand -4.88094 28.3802
lfingers 7.12502
lthumb 20.9078 57.2735
rfemur -62.2937 -1.78876 29.9659
rtibia 76.4315
rfoot -27.6525 -5.77547
rtoes 6.44879
lfemur -6.96935 -5.09338 -26.7667
ltibia 53.3359
lfoot 30.6334 -0.657231
ltoes 26.9188
70
root 6.91808 15.5746 -24.6473 27.4285 -32.913 -11.1075
lowerback 14.2122 -4.80032 -1.3405
upperback 0.258384 -6.14432 7.08146
thorax -6.7393 -2.89397 9.62622
lowerneck -16.5735 3.39458 -7.93236
upperneck 18.0424 4.60326 9.76209
head 7.85077 2.61467 5.1019
rclavicle -8.11041e-014 4.37326e-014
rhumerus -39.1206 -2.60374 -68.7179
rradius 58.5517
rwrist -10.8115
rhand -14.2248 21.8303
rfingers 7.12502
rthumb 11.9123 -7.81082
lclavicle -8.11041e-014 4.37326e-014
lhumerus -4.58183 24.0654 63.2735
lradius 25.7665
lwrist -9.82218
lhand -5.71402 28.3587
lfingers 7.12502
lthumb 20.1072 57.3382
rfemur -61.0032 -1.16241 29.8606
rtibia 76.668
rfoot -28.8422 -6.50241
rtoes 3.61782
lfemur -8.36925 -3.32774 -26.0848
ltibia 57.0283
lfoot 27.939 -1.05361
ltoes 20.5791
71
root 6.82994 15.5627 -24.3571 27.482 -32.9348 -11.8041
lowerback 14.503 -4.63102 -0.768642
upperback 0.405145 -5.82036 7.1241
thorax -6.85014 -2.75044 9.31281
lowerneck -16.3635 3.21471 -8.22129
upperneck 17.6536 4.37391 10.0685
head 7.69221 2.51845 5.20803
rclavicle 4.09496e-014 5.96354e-015
rhumerus -37.8809 -2.57754 -68.6025
rradius 58.2702
rwrist -9.81653
rhand -14.3849 22.288
rfingers 7.12502
rthumb 11.758 -7.36194
lclavicle 4.09496e-014 5.96354e-015
lhumerus -4.97197 25.0875 61.762
lradius 25.7631
lwrist -10.4347
lhand -6.15377 28.8124
lfingers 7.12502
lthumb 19.6845 57.8357
rfemur -59.1453 -0.550764 29.6854
rtibia 76.5275
rfoot -29.8761 -7.15177
rtoes 0.016761
lfemur -10.2569 -1.85113 -25.2996
ltibia 61.2182
lfoot 24.5025 0.667911
ltoes 21.2362
72
root 6.74399 15.5539 -24.064 27.6196 -32.8938 -12.5346
lowerback 14.6136 -4.48487 -0.123977
upperback 0.573091 -5.51969 7.20235
thorax -6.83163 -2.62719 8.97437
lowerneck -16.4211 3.0358 -8.54481
upperneck 17.5855 4.16174 10.3555
head 7.68619 2.42669 5.3389
rclavicle -2.44505e-014 3.45885e-014
rhumerus -36.4853 -2.28638 -68.5747
rradius 58.2148
rwrist -9.54577
rhand -14.7084 22.3915
rfingers 7.12502
rthumb 11.446 -7.27608
lclavicle -2.44505e-014 3.45885e-014
lhumerus -5.40689 25.92 60.2111
lradius 25.7027
lwrist -11.0548
lhand -5.60612 28.849
lfingers 7.12502
lthumb 20.211 57.8176
rfemur -57.3525 -0.170581 29.6776
rtibia 76.2812
rfoot -30.826 -7.64121
rtoes -2.85763
lfemur -12.2485 -0.242199 -24.4286
ltibia 65.323
lfoot 20.8425 1.39357
ltoes 23.8278
